<svg width="402" height="62" viewBox="0 0 402 62" fill="none" xmlns="http://www.w3.org/2000/svg">
<path d="M57.2666 26.7231C57.9085 26.7231 58.5173 26.8421 59.0928 27.0801C59.6683 27.3125 60.1774 27.6777 60.6201 28.1758C61.0684 28.6683 61.4198 29.3019 61.6743 30.0767C61.9289 30.8459 62.0562 31.7728 62.0562 32.8574V32.874C62.0562 34.2188 61.8625 35.3698 61.4751 36.3271C61.0877 37.2845 60.5316 38.0205 59.8066 38.5352C59.0872 39.0443 58.2267 39.2988 57.2251 39.2988C56.4891 39.2988 55.825 39.166 55.2329 38.9004C54.6463 38.6292 54.1593 38.2585 53.772 37.7881C53.3901 37.3122 53.1328 36.7699 53 36.1611L52.9834 36.0698H55.0835L55.1167 36.1528C55.2218 36.4295 55.3713 36.673 55.5649 36.8833C55.7642 37.0936 56.0021 37.2568 56.2788 37.373C56.561 37.4837 56.8765 37.5391 57.2251 37.5391C57.856 37.5391 58.3706 37.3537 58.769 36.9829C59.173 36.6066 59.4746 36.1058 59.6738 35.4805C59.8786 34.8496 59.9948 34.1523 60.0225 33.3887C60.028 33.3057 60.0308 33.2254 60.0308 33.1479C60.0308 33.0649 60.0308 32.9847 60.0308 32.9072L59.6572 30.9067C59.6572 30.453 59.5521 30.0407 59.3418 29.6699C59.1315 29.2992 58.8465 29.0059 58.4868 28.79C58.1326 28.5742 57.7314 28.4663 57.2832 28.4663C56.8516 28.4663 56.4559 28.5715 56.0962 28.7817C55.7365 28.992 55.4487 29.2798 55.2329 29.645C55.0171 30.0047 54.9092 30.4087 54.9092 30.8569V30.8735C54.9092 31.3384 55.0116 31.7507 55.2163 32.1104C55.4211 32.4645 55.7005 32.744 56.0547 32.9487C56.4089 33.1535 56.8128 33.2559 57.2666 33.2559C57.7204 33.2559 58.1271 33.1562 58.4868 32.957C58.8465 32.7578 59.1315 32.4811 59.3418 32.127C59.5521 31.7728 59.6572 31.3716 59.6572 30.9233V30.9067H60.1553V33.1147H59.8647C59.7209 33.4302 59.5078 33.7235 59.2256 33.9946C58.9434 34.2658 58.5947 34.4844 58.1797 34.6504C57.7702 34.8164 57.2887 34.8994 56.7354 34.8994C55.9717 34.8994 55.2965 34.7279 54.71 34.3848C54.1234 34.0417 53.6613 33.5713 53.3237 32.9736C52.9917 32.376 52.8257 31.7008 52.8257 30.9482V30.9316C52.8257 30.1182 53.0138 29.396 53.3901 28.7651C53.772 28.1287 54.2977 27.6307 54.9673 27.271C55.6424 26.9058 56.4089 26.7231 57.2666 26.7231ZM65.8247 37.3896C65.4484 37.3896 65.133 37.2651 64.8784 37.0161C64.6294 36.7616 64.5049 36.4517 64.5049 36.0864C64.5049 35.7157 64.6294 35.4058 64.8784 35.1567C65.133 34.9022 65.4484 34.7749 65.8247 34.7749C66.2065 34.7749 66.522 34.9022 66.771 35.1567C67.02 35.4058 67.1445 35.7157 67.1445 36.0864C67.1445 36.4517 67.02 36.7616 66.771 37.0161C66.522 37.2651 66.2065 37.3896 65.8247 37.3896ZM65.8247 31.2305C65.4484 31.2305 65.133 31.106 64.8784 30.8569C64.6294 30.6024 64.5049 30.2925 64.5049 29.9272C64.5049 29.5565 64.6294 29.2466 64.8784 28.9976C65.133 28.743 65.4484 28.6157 65.8247 28.6157C66.2065 28.6157 66.522 28.743 66.771 28.9976C67.02 29.2466 67.1445 29.5565 67.1445 29.9272C67.1445 30.2925 67.02 30.6024 66.771 30.8569C66.522 31.106 66.2065 31.2305 65.8247 31.2305ZM75.4038 39V36.7007H69.5435V34.9492C69.8589 34.4124 70.1743 33.8729 70.4897 33.3306C70.8107 32.7882 71.1344 32.2487 71.4609 31.7119C71.793 31.1696 72.1222 30.6356 72.4487 30.1099C72.7808 29.5786 73.11 29.0557 73.4365 28.541C73.7686 28.0208 74.1006 27.5145 74.4326 27.022H77.4458V34.9326H79.0645V36.7007H77.4458V39H75.4038ZM71.5356 34.9824H75.437V28.7319H75.3125C75.069 29.1082 74.8172 29.4956 74.5571 29.894C74.3026 30.2925 74.0452 30.6992 73.7852 31.1143C73.5251 31.5293 73.2677 31.9471 73.0132 32.3677C72.7586 32.7827 72.5068 33.2005 72.2578 33.6211C72.0088 34.0361 71.7681 34.4484 71.5356 34.8579V34.9824ZM84.02 39V29.1304H83.8706L80.8906 31.2305V29.2217L84.02 27.022H86.1533V39H84.02Z" fill="black"/>
<path fill-rule="evenodd" clip-rule="evenodd" d="M312.365 27.533C312.365 26.9 311.887 26.3868 311.298 26.3868H310.232C309.643 26.3868 309.165 26.9 309.165 27.533V37.467C309.165 38.1 309.643 38.6132 310.232 38.6132H311.298C311.887 38.6132 312.365 38.1 312.365 37.467V27.533ZM304.931 28.8321H305.998C306.587 28.8321 307.064 29.3576 307.064 30.0058V37.4395C307.064 38.0877 306.587 38.6132 305.998 38.6132H304.931C304.342 38.6132 303.864 38.0877 303.864 37.4395V30.0058C303.864 29.3576 304.342 28.8321 304.931 28.8321ZM300.599 31.4811H299.532C298.943 31.4811 298.466 32.0133 298.466 32.6698V37.4245C298.466 38.081 298.943 38.6132 299.532 38.6132H300.599C301.188 38.6132 301.666 38.081 301.666 37.4245V32.6698C301.666 32.0133 301.188 31.4811 300.599 31.4811ZM295.298 33.9264H294.232C293.643 33.9264 293.165 34.451 293.165 35.0981V37.4415C293.165 38.0886 293.643 38.6132 294.232 38.6132H295.298C295.887 38.6132 296.365 38.0886 296.365 37.4415V35.0981C296.365 34.451 295.887 33.9264 295.298 33.9264Z" fill="black"/>
<path fill-rule="evenodd" clip-rule="evenodd" d="M327.937 28.8021C330.424 28.8022 332.816 29.7243 334.618 31.3778C334.754 31.5054 334.971 31.5038 335.105 31.3742L336.402 30.1107C336.47 30.045 336.507 29.9559 336.507 29.8632C336.506 29.7705 336.468 29.6819 336.399 29.6169C331.668 25.2422 324.204 25.2422 319.473 29.6169C319.405 29.6818 319.366 29.7704 319.365 29.8631C319.365 29.9558 319.402 30.0449 319.47 30.1107L320.768 31.3742C320.901 31.504 321.119 31.5056 321.254 31.3778C323.057 29.7242 325.449 28.8021 327.937 28.8021ZM327.933 33.0224C329.291 33.0223 330.599 33.5341 331.606 34.4582C331.742 34.5893 331.956 34.5865 332.089 34.4518L333.376 33.1325C333.444 33.0633 333.481 32.9694 333.48 32.8718C333.479 32.7743 333.44 32.6812 333.371 32.6134C330.307 29.7226 325.562 29.7226 322.498 32.6134C322.429 32.6812 322.39 32.7743 322.389 32.8719C322.388 32.9695 322.426 33.0634 322.493 33.1325L323.78 34.4518C323.913 34.5865 324.127 34.5893 324.263 34.4582C325.269 33.5347 326.577 33.023 327.933 33.0224ZM330.458 35.816C330.46 35.9213 330.422 36.0229 330.355 36.0967L328.179 38.5514C328.115 38.6236 328.028 38.6642 327.937 38.6642C327.846 38.6642 327.759 38.6236 327.695 38.5514L325.518 36.0967C325.451 36.0228 325.414 35.9212 325.416 35.8159C325.418 35.7105 325.459 35.6108 325.529 35.5401C326.919 34.2262 328.955 34.2262 330.345 35.5401C330.415 35.6108 330.456 35.7106 330.458 35.816Z" fill="black"/>
<rect opacity="0.35" x="344.007" y="26.5" width="24" height="12" rx="3.8" stroke="black"/>
<path opacity="0.4" d="M369.507 30.7811V34.8566C370.312 34.5114 370.835 33.7085 370.835 32.8189C370.835 31.9293 370.312 31.1263 369.507 30.7811Z" fill="black"/>
<rect x="345.507" y="28" width="21" height="9" rx="2.5" fill="black"/>
</svg>
